<svg height="1214" width="720" xmlns="http://www.w3.org/2000/svg">
<rect height="1214" fill="#555" width="720"></rect>
<text fill="#7f7" font-family="Courier New" font-size="12" xml:space="preserve">
<tspan x="10" y="26">10 megabytes installed</tspan>
<tspan x="10" y="42"></tspan>
<tspan x="10" y="58">node_modules</tspan>
<tspan x="10" y="74">└─┬ oneapm@2.0.0 </tspan>
<tspan x="10" y="90">  ├── bunyan@0.14.6 </tspan>
<tspan x="10" y="106">  ├─┬ continuation-local-storage@3.2.0 </tspan>
<tspan x="10" y="122">  │ ├─┬ async-listener@0.6.5 </tspan>
<tspan x="10" y="138">  │ │ ├── semver@5.3.0 </tspan>
<tspan x="10" y="154">  │ │ └── shimmer@1.1.0 </tspan>
<tspan x="10" y="170">  │ └─┬ emitter-listener@1.0.1 </tspan>
<tspan x="10" y="186">  │   └── shimmer@1.0.0 </tspan>
<tspan x="10" y="202">  ├─┬ debug@2.6.4 </tspan>
<tspan x="10" y="218">  │ └── ms@0.7.3 </tspan>
<tspan x="10" y="234">  ├── is-docker@1.1.0 </tspan>
<tspan x="10" y="250">  ├── oneapm-config@1.1.0 </tspan>
<tspan x="10" y="266">  ├── oneapm-logger@2.0.0 </tspan>
<tspan x="10" y="282">  ├─┬ oneapm-server@1.1.0 </tspan>
<tspan x="10" y="298">  │ └─┬ request@2.81.0 </tspan>
<tspan x="10" y="314">  │   ├── aws-sign2@0.6.0 </tspan>
<tspan x="10" y="330">  │   ├── aws4@1.6.0 </tspan>
<tspan x="10" y="346">  │   ├── caseless@0.12.0 </tspan>
<tspan x="10" y="362">  │   ├─┬ combined-stream@1.0.5 </tspan>
<tspan x="10" y="378">  │   │ └── delayed-stream@1.0.0 </tspan>
<tspan x="10" y="394">  │   ├── extend@3.0.0 </tspan>
<tspan x="10" y="410">  │   ├── forever-agent@0.6.1 </tspan>
<tspan x="10" y="426">  │   ├─┬ form-data@2.1.4 </tspan>
<tspan x="10" y="442">  │   │ └── asynckit@0.4.0 </tspan>
<tspan x="10" y="458">  │   ├─┬ har-validator@4.2.1 </tspan>
<tspan x="10" y="474">  │   │ ├─┬ ajv@4.11.7 </tspan>
<tspan x="10" y="490">  │   │ │ ├── co@4.6.0 </tspan>
<tspan x="10" y="506">  │   │ │ └─┬ json-stable-stringify@1.0.1 </tspan>
<tspan x="10" y="522">  │   │ │   └── jsonify@0.0.0 </tspan>
<tspan x="10" y="538">  │   │ └── har-schema@1.0.5 </tspan>
<tspan x="10" y="554">  │   ├─┬ hawk@3.1.3 </tspan>
<tspan x="10" y="570">  │   │ ├── boom@2.10.1 </tspan>
<tspan x="10" y="586">  │   │ ├── cryptiles@2.0.5 </tspan>
<tspan x="10" y="602">  │   │ ├── hoek@2.16.3 </tspan>
<tspan x="10" y="618">  │   │ └── sntp@1.0.9 </tspan>
<tspan x="10" y="634">  │   ├─┬ http-signature@1.1.1 </tspan>
<tspan x="10" y="650">  │   │ ├── assert-plus@0.2.0 </tspan>
<tspan x="10" y="666">  │   │ ├─┬ jsprim@1.4.0 </tspan>
<tspan x="10" y="682">  │   │ │ ├── assert-plus@1.0.0 </tspan>
<tspan x="10" y="698">  │   │ │ ├── extsprintf@1.0.2 </tspan>
<tspan x="10" y="714">  │   │ │ ├── json-schema@0.2.3 </tspan>
<tspan x="10" y="730">  │   │ │ └── verror@1.3.6 </tspan>
<tspan x="10" y="746">  │   │ └─┬ sshpk@1.13.0 </tspan>
<tspan x="10" y="762">  │   │   ├── asn1@0.2.3 </tspan>
<tspan x="10" y="778">  │   │   ├── assert-plus@1.0.0 </tspan>
<tspan x="10" y="794">  │   │   ├── bcrypt-pbkdf@1.0.1 </tspan>
<tspan x="10" y="810">  │   │   ├─┬ dashdash@1.14.1 </tspan>
<tspan x="10" y="826">  │   │   │ └── assert-plus@1.0.0 </tspan>
<tspan x="10" y="842">  │   │   ├── ecc-jsbn@0.1.1 </tspan>
<tspan x="10" y="858">  │   │   ├─┬ getpass@0.1.6 </tspan>
<tspan x="10" y="874">  │   │   │ └── assert-plus@1.0.0 </tspan>
<tspan x="10" y="890">  │   │   ├── jodid25519@1.0.2 </tspan>
<tspan x="10" y="906">  │   │   ├── jsbn@0.1.1 </tspan>
<tspan x="10" y="922">  │   │   └── tweetnacl@0.14.5 </tspan>
<tspan x="10" y="938">  │   ├── is-typedarray@1.0.0 </tspan>
<tspan x="10" y="954">  │   ├── isstream@0.1.2 </tspan>
<tspan x="10" y="970">  │   ├── json-stringify-safe@5.0.1 </tspan>
<tspan x="10" y="986">  │   ├─┬ mime-types@2.1.15 </tspan>
<tspan x="10" y="1002">  │   │ └── mime-db@1.27.0 </tspan>
<tspan x="10" y="1018">  │   ├── oauth-sign@0.8.2 </tspan>
<tspan x="10" y="1034">  │   ├── performance-now@0.2.0 </tspan>
<tspan x="10" y="1050">  │   ├── qs@6.4.0 </tspan>
<tspan x="10" y="1066">  │   ├── safe-buffer@5.0.1 </tspan>
<tspan x="10" y="1082">  │   ├── stringstream@0.0.5 </tspan>
<tspan x="10" y="1098">  │   ├─┬ tough-cookie@2.3.2 </tspan>
<tspan x="10" y="1114">  │   │ └── punycode@1.4.1 </tspan>
<tspan x="10" y="1130">  │   ├── tunnel-agent@0.6.0 </tspan>
<tspan x="10" y="1146">  │   └── uuid@3.0.1 </tspan>
<tspan x="10" y="1162">  ├── oneapm-util@1.0.0 </tspan>
<tspan x="10" y="1178">  ├── pidusage-fork@0.1.2 </tspan>
<tspan x="10" y="1194">  └── semver@4.3.6</tspan>
</text>
</svg>
